<!DOCTYPE svg PUBLIC "-//W3C//DTD SVG 1.1//EN" "http://www.w3.org/Graphics/SVG/1.1/DTD/svg11.dtd">
<!-- Uploaded to: SVG Repo, www.svgrepo.com, Transformed by: SVG Repo Mixer Tools -->
<svg fill="#630F11" height="256px" width="256px" version="1.1" id="Icons" xmlns="http://www.w3.org/2000/svg" xmlns:xlink="http://www.w3.org/1999/xlink" viewBox="0 0 32.00 32.00" xml:space="preserve" stroke="#630F11" stroke-width="0.00032">
<g id="SVGRepo_bgCarrier" stroke-width="0"/>
<g id="SVGRepo_tracerCarrier" stroke-linecap="round" stroke-linejoin="round"/>
<g id="SVGRepo_iconCarrier"> <g> <path d="M21,4H11c-4.4,0-8,3.6-8,8c0,0.6,0.4,1,1,1h4.9c1.7,0,3.1-1.4,3.1-3.1C12,9.4,12.4,9,12.9,9h6.1C19.6,9,20,9.4,20,9.9 c0,1.7,1.4,3.1,3.1,3.1H28c0.6,0,1-0.4,1-1C29,7.6,25.4,4,21,4z"/> <path d="M21.8,14.4C21.6,14.2,21.3,14,21,14h-2v-1c0-0.6-0.4-1-1-1s-1,0.4-1,1v1h-2v-1c0-0.6-0.4-1-1-1s-1,0.4-1,1v1h-2 c-0.3,0-0.6,0.2-0.8,0.4l-2.1,2.9C6.1,20.2,5,23.5,5,27c0,0.6,0.4,1,1,1h2v1c0,0.6,0.4,1,1,1s1-0.4,1-1v-1h12v1c0,0.6,0.4,1,1,1 s1-0.4,1-1v-1h2c0.6,0,1-0.4,1-1c0-3.5-1.1-6.8-3.1-9.6L21.8,14.4z M16,25c-2.2,0-4-1.8-4-4s1.8-4,4-4s4,1.8,4,4S18.2,25,16,25z"/> </g> </g>
</svg>